HIERARCHY
ROOT Model_Hips
{
	OFFSET 0.000000 96.915077 0.000000
	CHANNELS 6 Xposition Yposition Zposition Xrotation Yrotation Zrotation
	JOINT Model_Spine
	{
		OFFSET 0.000000 11.137703 -1.289900
		CHANNELS 3 Xrotation Yrotation Zrotation
		JOINT Model_Spine1
		{
			OFFSET 0.000000 12.993942 -1.504922
			CHANNELS 3 Xrotation Yrotation Zrotation
			JOINT Model_Spine2
			{
				OFFSET 0.000000 14.850220 -1.719911
				CHANNELS 3 Xrotation Yrotation Zrotation
				JOINT Model_Neck
				{
					OFFSET 0.000000 16.706543 -1.934903
					CHANNELS 3 Xrotation Yrotation Zrotation
					JOINT Model_Head
					{
						OFFSET 0.000000 10.471298 2.002100
						CHANNELS 3 Xrotation Yrotation Zrotation
						JOINT Model_HeadTop_End
						{
							OFFSET 0.000000 20.842606 3.985100
							CHANNELS 3 Xrotation Yrotation Zrotation
							End Site
							{
								OFFSET 0.000000 21.220154 0.000000
							}
						}
					}
				}
				JOINT Model_LeftShoulder
				{
					OFFSET 7.008500 14.768600 -1.919946
					CHANNELS 3 Xrotation Yrotation Zrotation
					JOINT Model_LeftArm
					{
						OFFSET 14.126271 -3.718048 0.029937
						CHANNELS 3 Xrotation Yrotation Zrotation
						JOINT Model_LeftForeArm
						{
							OFFSET 28.282801 0.000000 0.000000
							CHANNELS 3 Xrotation Yrotation Zrotation
							JOINT Model_LeftHand
							{
								OFFSET 26.204689 0.000000 0.000000
								CHANNELS 3 Xrotation Yrotation Zrotation
								End Site
								{
									OFFSET 26.204704 0.000000 0.000000
								}
							}
						}
					}
				}
				JOINT Model_RightShoulder
				{
					OFFSET -7.008500 14.768555 -1.949840
					CHANNELS 3 Xrotation Yrotation Zrotation
					JOINT Model_RightArm
					{
						OFFSET -14.126281 -3.718018 -0.029932
						CHANNELS 3 Xrotation Yrotation Zrotation
						JOINT Model_RightForeArm
						{
							OFFSET -28.283798 0.000000 -0.000001
							CHANNELS 3 Xrotation Yrotation Zrotation
							JOINT Model_RightHand
							{
								OFFSET -26.204193 0.000000 -0.000001
								CHANNELS 3 Xrotation Yrotation Zrotation
								End Site
								{
									OFFSET -26.204208 0.000000 -0.000001
								}
							}
						}
					}
				}
			}
		}
	}
	JOINT Model_LeftUpLeg
	{
		OFFSET 8.327700 -6.193199 -0.402800
		CHANNELS 3 Xrotation Yrotation Zrotation
		JOINT Model_LeftLeg
		{
			OFFSET 0.735802 -42.108742 -0.610721
			CHANNELS 3 Xrotation Yrotation Zrotation
			JOINT Model_LeftFoot
			{
				OFFSET -0.735806 -36.833748 -0.172876
				CHANNELS 3 Xrotation Yrotation Zrotation
				JOINT Model_LeftToeBase
				{
					OFFSET -0.565857 -11.977769 16.297714
					CHANNELS 3 Xrotation Yrotation Zrotation
					JOINT Model_LeftToe_End
					{
						OFFSET -0.111712 -0.312793 7.857784
						CHANNELS 3 Xrotation Yrotation Zrotation
						End Site
						{
							OFFSET -0.111712 -0.312793 7.857784
						}
					}
				}
			}
		}
	}
	JOINT Model_RightUpLeg
	{
		OFFSET -8.327700 -6.193199 -0.516500
		CHANNELS 3 Xrotation Yrotation Zrotation
		JOINT Model_RightLeg
		{
			OFFSET -0.735785 -42.108738 -0.434061
			CHANNELS 3 Xrotation Yrotation Zrotation
			JOINT Model_RightFoot
			{
				OFFSET 0.735776 -36.833748 -0.021630
				CHANNELS 3 Xrotation Yrotation Zrotation
				JOINT Model_RightToeBase
				{
					OFFSET 0.565817 -11.977745 15.903093
					CHANNELS 3 Xrotation Yrotation Zrotation
					JOINT Model_RightToe_End
					{
						OFFSET 0.111702 -0.312791 7.811342
						CHANNELS 3 Xrotation Yrotation Zrotation
						End Site
						{
							OFFSET 0.111702 -0.312791 7.811342
						}
					}
				}
			}
		}
	}
}
MOTION
Frames: 7
Frame Time: 0.016667
-0.489803 83.785316 3.224041 13.820578 -22.516748 -11.178959 5.215533 2.824397 3.028698 10.567108 5.980068 2.498740 10.567108 5.980065 2.498736 -1.285122 -0.741236 -1.300132 -1.285106 -0.741234 -1.300134 -0.000000 0.000000 -0.000000 0.344376 2.030820 4.441751 2.894278 4.672395 -60.214599 0.011162 -58.806856 0.143699 -0.000000 0.000000 -0.000000 0.817216 10.759168 -11.612778 -25.352414 6.118673 77.583408 -0.033784 108.463554 0.053756 0.000001 -0.000000 -0.000001 -48.583805 -5.932053 26.638120 135.490299 -4.310814 -3.310300 5.376324 -8.769395 -7.985318 -1.467880 -0.030077 0.065859 0.000002 0.000000 0.000000 -24.691105 -1.099926 18.551537 66.353874 -0.230501 2.229263 -29.045140 8.935614 -7.584826 -28.202775 0.204020 -1.010453 0.000000 -0.000000 0.000000 
-0.916954 82.959816 9.372320 13.081402 -26.875613 -10.935767 5.159176 3.648377 2.833461 10.528267 7.450601 1.831241 10.528264 7.450610 1.831241 -0.581105 -0.697680 -1.529704 -0.581098 -0.697680 -1.529706 0.000001 -0.000001 0.000001 0.362569 4.345943 6.966334 11.680133 6.359613 -61.503907 -0.050162 -56.214100 0.109101 -0.000002 0.000000 -0.000001 0.351787 13.087670 -11.162884 -30.087786 7.330960 79.728033 0.000165 116.114773 0.026476 0.000001 -0.000002 -0.000002 -56.871918 -7.605377 27.496725 135.185454 -2.793702 -1.948857 5.608826 -5.908685 -9.392282 0.006994 -0.028628 0.062664 0.000000 0.000000 0.000000 -18.736110 4.027770 17.134069 62.891637 -0.136895 2.294103 -32.125556 11.181282 -6.201250 -28.443307 0.203181 -1.011174 0.000001 0.000001 0.000000 
-1.421034 82.420609 15.619229 12.792081 -31.121340 -10.223944 5.239737 4.454492 2.244737 10.747558 8.829035 0.867674 10.747569 8.829025 0.867676 -1.146434 -0.630081 -1.654478 -1.146433 -0.630081 -1.654477 -0.000000 -0.000000 -0.000000 0.302390 6.505992 9.358990 20.494232 7.859288 -62.351506 -0.110752 -54.866974 0.078546 0.000002 0.000001 0.000001 0.025630 15.290268 -11.256801 -34.504200 8.607046 81.961553 0.020974 124.294294 0.014428 -0.000000 0.000000 0.000000 -63.921008 -9.086006 27.685183 133.344854 -0.898031 -0.777575 4.836679 -3.017653 -10.558038 0.924911 -0.025989 0.060473 0.000000 0.000000 0.000000 -11.915463 8.165140 14.107358 57.020496 0.671446 2.036611 -33.605917 13.401548 -5.017024 -28.533674 0.207537 -1.012420 -0.000001 0.000001 0.000000 
-1.956228 82.692207 21.767723 13.194934 -32.580921 -8.213425 5.210106 4.963633 1.262676 10.698862 9.611236 -0.369844 10.698873 9.611239 -0.369845 -1.566497 -0.615753 -1.648122 -1.566505 -0.615751 -1.648123 0.000002 0.000001 -0.000000 0.218083 7.858931 10.797666 29.080838 6.515119 -60.506378 -0.148779 -57.144132 0.057166 0.000002 -0.000001 0.000002 -0.234518 15.899055 -11.689437 -36.903140 10.963831 82.542980 0.023089 128.685408 0.021490 -0.000001 -0.000001 -0.000000 -71.181301 -8.205314 25.832416 127.464649 2.753240 0.569490 3.761943 -0.048928 -7.776504 0.508231 -0.025706 0.061323 -0.000001 -0.000000 -0.000000 -3.671338 10.259310 9.356041 47.429752 -0.290036 1.271245 -32.358025 15.233016 -2.568498 -28.611826 0.214934 -1.016594 -0.000000 0.000001 0.000000 
-2.464087 83.290123 27.995161 14.169275 -33.111784 -5.861394 5.071345 5.280453 0.164894 10.412459 10.160228 -1.704361 10.412452 10.160222 -1.704359 -1.885014 -0.626207 -1.627383 -1.884956 -0.626204 -1.627391 0.000001 -0.000001 0.000000 0.096921 8.791043 11.840489 37.200185 4.749194 -57.850842 -0.166783 -60.919010 0.042697 -0.000001 0.000002 0.000002 -0.305920 15.971754 -12.503555 -38.372020 13.571268 82.530904 0.025297 132.982827 0.031131 0.000003 -0.000003 -0.000002 -76.460744 -6.984567 24.091051 119.288721 5.491488 1.142116 1.308135 2.753935 -4.679521 -0.928156 -0.028824 0.064669 0.000000 -0.000000 -0.000000 5.495636 9.992706 4.122555 34.535533 -0.428599 0.362208 -26.446414 16.975831 -1.211332 -28.676023 0.229026 -1.022727 0.000000 0.000000 0.000000 
-2.936062 84.011696 34.662670 15.428924 -32.408780 -3.582352 4.761141 5.309784 -0.952449 9.763206 10.432066 -2.998890 9.763206 10.432073 -2.998891 -1.727571 -0.705857 -1.485054 -1.727587 -0.705859 -1.485053 -0.000001 -0.000000 -0.000000 -0.001785 9.326632 12.314805 44.354538 2.388246 -54.833927 -0.177712 -65.075706 0.029856 -0.000002 0.000001 -0.000002 -0.315422 15.322449 -12.968922 -38.837231 16.381889 81.168213 0.024143 136.929925 0.042996 0.000000 -0.000001 0.000000 -79.278368 -5.605085 22.420803 109.640464 6.741818 0.831626 -2.111818 5.582700 -4.120866 -4.026295 -0.036130 0.071591 -0.000001 -0.000000 -0.000000 16.070411 7.037829 -0.740642 16.736446 0.973661 -0.230529 -12.650998 18.491088 -1.986316 -33.399434 0.322434 -0.819662 -0.000000 -0.000000 0.000000 
-3.352552 84.815598 41.475727 16.669331 -30.906292 -1.943077 4.339998 5.206675 -1.711242 8.940476 10.483358 -4.167514 8.940488 10.483367 -4.167515 -1.488194 -0.815915 -1.217505 -1.488179 -0.815916 -1.217505 -0.000001 0.000000 0.000000 -0.078460 9.472563 12.386443 50.378925 -0.527709 -51.961743 -0.186056 -68.767806 0.015768 -0.000000 0.000000 -0.000001 -0.355922 14.231287 -12.775073 -37.963571 19.064211 78.834685 0.021954 139.936984 0.051681 0.000001 -0.000000 0.000001 -80.664548 -3.890284 21.008818 98.855876 7.413422 0.287340 -6.431654 8.636583 -4.281524 -6.693749 -0.038384 0.077063 -0.000002 0.000001 -0.000000 14.221043 3.225869 -3.002701 19.112230 5.287645 0.231183 2.263897 16.709885 -2.300339 -45.285315 1.797598 -4.613626 0.000000 0.000000 -0.000000 
